<?xml version="1.0" encoding="iso-8859-1"?>
<!-- Generator: Adobe Illustrator 22.1.0, SVG Export Plug-In . SVG Version: 6.00 Build 0)  -->
<svg version="1.1" xmlns="http://www.w3.org/2000/svg" xmlns:xlink="http://www.w3.org/1999/xlink" x="0px" y="0px"
	 viewBox="0 0 64 64" style="enable-background:new 0 0 64 64;" xml:space="preserve">
<g id="_x31_6">
	<path style="fill:#FFFFFF;" d="M32,0c-7.817,0-14.975,2.806-20.533,7.461v49.078C17.025,61.194,24.183,64,32,64
		c7.822,0,14.985-2.81,20.544-7.471l-0.01-49.066C46.977,2.807,39.817,0,32,0z M32.193,47.665l-1.637,0.044l0.188-7.909
		l-7.854,0.996c0.476-0.863,1.217-1.338,0.664-2.965l-7.245-6.36l1.571-0.531v0.011c0.962-0.962-0.564-3.883-1.051-5.641
		c1.427,0.31,3.562,1.106,4.192,0.841c0.642-0.288,0.962-1.538,1.438-2.312l3.684,4.17c0.354,0.188,0.664,0.1,0.796-0.254
		l-1.615-8.75L28,20.509c0.177,0.133,0.387,0.111,0.597-0.088l2.788-5.63l2.71,5.42c0.155,0.277,0.387,0.365,0.619,0.254l2.81-1.582
		l-1.77,8.827c0.1,0.354,0.277,0.52,0.697,0.42l3.838-4.226l1.084,2.069c0.277,0.763,4.491-0.686,4.491-0.686
		c-0.221,1.925-1.703,4.967-0.664,5.763l1.261,0.465l-7.234,6.029c-0.442,1.637-0.011,2.179,0.476,3.208l-7.876-0.94L32.193,47.665z
		"/>
	<path style="fill:#C61740;" d="M39.704,40.751l-7.876-0.94l0.365,7.854l-1.637,0.044l0.188-7.909l-7.854,0.996
		c0.476-0.863,1.217-1.338,0.664-2.965l-7.245-6.36l1.571-0.531v0.011c0.962-0.962-0.564-3.883-1.051-5.641
		c1.427,0.31,3.562,1.106,4.192,0.841c0.642-0.288,0.962-1.538,1.438-2.312l3.684,4.17c0.354,0.188,0.664,0.1,0.796-0.254
		l-1.615-8.75L28,20.509c0.177,0.133,0.387,0.111,0.597-0.088l2.788-5.63l2.71,5.42c0.155,0.277,0.387,0.365,0.619,0.254l2.81-1.582
		l-1.77,8.827c0.1,0.354,0.277,0.52,0.697,0.42l3.838-4.226l1.084,2.069c0.277,0.763,4.491-0.686,4.491-0.686
		c-0.221,1.925-1.703,4.967-0.664,5.763l1.261,0.465l-7.234,6.029C38.786,39.181,39.217,39.723,39.704,40.751z M52.534,7.463
		l0.01,49.066C59.545,50.659,64,41.851,64,32C64,22.144,59.541,13.333,52.534,7.463z M0,32c0,9.857,4.459,18.669,11.467,24.539
		V7.461C4.459,13.331,0,22.143,0,32z"/>
</g>
<g id="Layer_1">
</g>
</svg>
